<svg version="1.1" xmlns="http://www.w3.org/2000/svg" width="600" height="700"><defs><clipPath id="REnAUXPXheBE"><path fill="none" stroke="none" d="M 0.5 0.5 L 600.5 0.5 L 600.5 700.5 L 0.5 700.5 L 0.5 0.5 Z M 42.5 26.5 L 570.5 26.5 L 570.5 656.5 L 42.5 656.5 L 42.5 26.5 Z" clip-rule="evenodd"/></clipPath><clipPath id="HiTfXJhFCPLO"><path fill="none" stroke="none" d="M 42.5 26.5 L 570.5 26.5 L 570.5 656.5 L 42.5 656.5 L 42.5 26.5 Z"/></clipPath><clipPath id="AFNOXywfALDF"><path fill="none" stroke="none" d="M 42.5 26.5 L 570.5 26.5 L 570.5 656.5 L 42.5 656.5 L 42.5 26.5 Z"/></clipPath><clipPath id="qbUrIaPTyLZx"><path fill="none" stroke="none" d="M 42.5 26.5 L 570.5 26.5 L 570.5 656.5 L 42.5 656.5 L 42.5 26.5 Z"/></clipPath><clipPath id="nWahlDICWXtp"><path fill="none" stroke="none" d="M 42.5 26.5 L 570.5 26.5 L 570.5 656.5 L 42.5 656.5 L 42.5 26.5 Z"/></clipPath></defs><path fill="rgb(255,255,255)" stroke="none" paint-order="stroke" d="M 0.5 0.5 L 600.5 0.5 L 600.5 700.5 L 0.5 700.5 L 0.5 0.5 Z" fill-opacity="1" clip-path="url(#REnAUXPXheBE)"/><path fill="rgb(255,255,255)" stroke="none" paint-order="stroke" d="M 42.5 26.5 L 570.5 26.5 L 570.5 656.5 L 42.5 656.5 L 42.5 26.5 Z" fill-opacity="1"/><path fill="none" stroke="rgb(229,229,229)" paint-order="fill" d="M 42.5 26.5 L 570.5 26.5 L 570.5 656.5 L 42.5 656.5 L 42.5 26.5 Z" stroke-opacity="1" stroke-linejoin="bevel" stroke-miterlimit="10"/><path fill="none" stroke="rgb(229,229,229)" paint-order="fill" d="M 80.5 656.5 L 80.5 26.5 M 155.5 656.5 L 155.5 26.5 M 231.5 656.5 L 231.5 26.5 M 306.5 656.5 L 306.5 26.5 M 381.5 656.5 L 381.5 26.5 M 457.5 656.5 L 457.5 26.5" stroke-opacity="1" stroke-linejoin="bevel" stroke-miterlimit="10" clip-path="url(#HiTfXJhFCPLO)"/><path fill="none" stroke="rgb(229,229,229)" paint-order="fill" d="M 42.5 604.5 L 570.5 604.5 M 42.5 499.5 L 570.5 499.5 M 42.5 394.5 L 570.5 394.5 M 42.5 289.5 L 570.5 289.5 M 42.5 184.5 L 570.5 184.5" stroke-opacity="1" stroke-linejoin="bevel" stroke-miterlimit="10" clip-path="url(#AFNOXywfALDF)"/><path fill="rgb(34,136,51)" stroke="rgb(34,136,51)" paint-order="fill" d="M 276.2456970214844 273.305908203125 L 336.7543296813965 273.305908203125 L 336.7543296813965 304.6941146850586 L 276.2456970214844 304.6941146850586 L 276.2456970214844 273.305908203125 Z" fill-opacity="1" clip-path="url(#qbUrIaPTyLZx)" stroke-opacity="1" stroke-linejoin="bevel" stroke-miterlimit="10"/><path fill="rgb(238,102,119)" stroke="rgb(238,102,119)" paint-order="fill" d="M 198.2630615234375 279.79852294921875 L 263.8797836303711 279.79852294921875 L 263.8797836303711 298.20147132873535 L 198.2630615234375 298.20147132873535 L 198.2630615234375 279.79852294921875 Z" fill-opacity="1" clip-path="url(#qbUrIaPTyLZx)" stroke-opacity="1" stroke-linejoin="bevel" stroke-miterlimit="10"/><path fill="rgb(170,51,119)" stroke="rgb(170,51,119)" paint-order="fill" d="M 423.23468017578125 280.8304748535156 L 491.47957611083984 280.8304748535156 L 491.47957611083984 297.16954040527344 L 423.23468017578125 297.16954040527344 L 423.23468017578125 280.8304748535156 Z" fill-opacity="1" clip-path="url(#qbUrIaPTyLZx)" stroke-opacity="1" stroke-linejoin="bevel" stroke-miterlimit="10"/><path fill="rgb(204,187,68)" stroke="rgb(204,187,68)" paint-order="fill" d="M 59.67250061035156 555.83251953125 L 100.75607299804688 555.83251953125 L 100.75607299804688 652.1674728393555 L 59.67250061035156 652.1674728393555 L 59.67250061035156 555.83251953125 Z" fill-opacity="1" clip-path="url(#qbUrIaPTyLZx)" stroke-opacity="1" stroke-linejoin="bevel" stroke-miterlimit="10"/><path fill="rgb(187,187,187)" stroke="rgb(187,187,187)" paint-order="fill" d="M 508.94488525390625 150.69354248046875 L 556.6265182495117 150.69354248046875 L 556.6265182495117 217.3064422607422 L 508.94488525390625 217.3064422607422 L 508.94488525390625 150.69354248046875 Z" fill-opacity="1" clip-path="url(#qbUrIaPTyLZx)" stroke-opacity="1" stroke-linejoin="bevel" stroke-miterlimit="10"/><path fill="rgb(68,119,170)" stroke="rgb(68,119,170)" paint-order="fill" d="M 125.57817077636719 281.7334289550781 L 185.70755004882812 281.7334289550781 L 185.70755004882812 296.26659870147705 L 125.57817077636719 296.26659870147705 L 125.57817077636719 281.7334289550781 Z" fill-opacity="1" clip-path="url(#qbUrIaPTyLZx)" stroke-opacity="1" stroke-linejoin="bevel" stroke-miterlimit="10"/><path fill="rgb(204,187,68)" stroke="rgb(204,187,68)" paint-order="fill" d="M 63.476531982421875 282.3783874511719 L 96.9520378112793 282.3783874511719 L 96.9520378112793 295.62163066864014 L 63.476531982421875 295.62163066864014 L 63.476531982421875 282.3783874511719 Z" fill-opacity="1" clip-path="url(#qbUrIaPTyLZx)" stroke-opacity="1" stroke-linejoin="bevel" stroke-miterlimit="10"/><path fill="rgb(34,136,51)" stroke="rgb(34,136,51)" paint-order="fill" d="M 299.7860412597656 168.75807189941406 L 313.2139844894409 168.75807189941406 L 313.2139844894409 199.241943359375 L 299.7860412597656 199.241943359375 L 299.7860412597656 168.75807189941406 Z" fill-opacity="1" clip-path="url(#qbUrIaPTyLZx)" stroke-opacity="1" stroke-linejoin="bevel" stroke-miterlimit="10"/><path fill="rgb(102,204,238)" stroke="rgb(102,204,238)" paint-order="fill" d="M 349.2735290527344 285.9471740722656 L 414.58363342285156 285.9471740722656 L 414.58363342285156 292.05282497406006 L 349.2735290527344 292.05282497406006 L 349.2735290527344 285.9471740722656 Z" fill-opacity="1" clip-path="url(#qbUrIaPTyLZx)" stroke-opacity="1" stroke-linejoin="bevel" stroke-miterlimit="10"/><path fill="rgb(187,187,187)" stroke="rgb(187,187,187)" paint-order="fill" d="M 524.9734497070312 286.5061340332031 L 540.597939491272 286.5061340332031 L 540.597939491272 291.4938488006592 L 524.9734497070312 291.4938488006592 L 524.9734497070312 286.5061340332031 Z" fill-opacity="1" clip-path="url(#qbUrIaPTyLZx)" stroke-opacity="1" stroke-linejoin="bevel" stroke-miterlimit="10"/><path fill="rgb(187,187,187)" stroke="rgb(187,187,187)" paint-order="fill" d="M 527.5326538085938 38.04999923706055 L 538.0387763977051 38.04999923706055 L 538.0387763977051 119.95000076293945 L 527.5326538085938 119.95000076293945 L 527.5326538085938 38.04999923706055 Z" fill-opacity="1" clip-path="url(#qbUrIaPTyLZx)" stroke-opacity="1" stroke-linejoin="bevel" stroke-miterlimit="10"/><path fill="rgb(238,102,119)" stroke="rgb(238,102,119)" paint-order="fill" d="M 226.77874755859375 367.75 L 235.36411380767822 367.75 L 235.36411380767822 420.25 L 226.77874755859375 420.25 L 226.77874755859375 367.75 Z" fill-opacity="1" clip-path="url(#qbUrIaPTyLZx)" stroke-opacity="1" stroke-linejoin="bevel" stroke-miterlimit="10"/><path fill="rgb(68,119,170)" stroke="rgb(68,119,170)" paint-order="fill" d="M 152.08489990234375 375.25 L 159.20080280303955 375.25 L 159.20080280303955 412.75 L 152.08489990234375 412.75 L 152.08489990234375 375.25 Z" fill-opacity="1" clip-path="url(#qbUrIaPTyLZx)" stroke-opacity="1" stroke-linejoin="bevel" stroke-miterlimit="10"/><path fill="rgb(68,119,170)" stroke="rgb(68,119,170)" paint-order="fill" d="M 153.1522979736328 462.25 L 158.13343000411987 462.25 L 158.13343000411987 535.75 L 153.1522979736328 535.75 L 153.1522979736328 462.25 Z" fill-opacity="1" clip-path="url(#qbUrIaPTyLZx)" stroke-opacity="1" stroke-linejoin="bevel" stroke-miterlimit="10"/><path fill="rgb(170,51,119)" stroke="rgb(170,51,119)" paint-order="fill" d="M 455.0224609375 600.6868896484375 L 459.6918487548828 600.6868896484375 L 459.6918487548828 607.3131031990051 L 455.0224609375 607.3131031990051 L 455.0224609375 600.6868896484375 Z" fill-opacity="1" clip-path="url(#qbUrIaPTyLZx)" stroke-opacity="1" stroke-linejoin="bevel" stroke-miterlimit="10"/><path fill="rgb(102,204,238)" stroke="rgb(102,204,238)" paint-order="fill" d="M 377.7891845703125 182.30645751953125 L 386.0679302215576 182.30645751953125 L 386.0679302215576 185.6935544013977 L 377.7891845703125 185.6935544013977 L 377.7891845703125 182.30645751953125 Z" fill-opacity="1" clip-path="url(#qbUrIaPTyLZx)" stroke-opacity="1" stroke-linejoin="bevel" stroke-miterlimit="10"/><path fill="rgb(68,119,170)" stroke="rgb(68,119,170)" paint-order="fill" d="M 154.39756774902344 182.68280029296875 L 156.88813376426697 182.68280029296875 L 156.88813376426697 185.31720900535583 L 154.39756774902344 185.31720900535583 L 154.39756774902344 182.68280029296875 Z" fill-opacity="1" clip-path="url(#qbUrIaPTyLZx)" stroke-opacity="1" stroke-linejoin="bevel" stroke-miterlimit="10"/><path fill="rgb(34,136,51)" stroke="rgb(34,136,51)" paint-order="fill" d="M 306.0026550292969 72.69999694824219 L 306.9973174929619 72.69999694824219 L 306.9973174929619 85.29999732971191 L 306.0026550292969 85.29999732971191 L 306.0026550292969 72.69999694824219 Z" fill-opacity="1" clip-path="url(#qbUrIaPTyLZx)" stroke-opacity="1" stroke-linejoin="bevel" stroke-miterlimit="10"/><path fill="rgb(187,187,187)" stroke="rgb(187,187,187)" paint-order="fill" d="M 532.3816528320312 391.1875 L 533.1898161172867 391.1875 L 533.1898161172867 396.8125 L 532.3816528320312 396.8125 L 532.3816528320312 391.1875 Z" fill-opacity="1" clip-path="url(#qbUrIaPTyLZx)" stroke-opacity="1" stroke-linejoin="bevel" stroke-miterlimit="10"/><path fill="rgb(187,187,187)" stroke="rgb(187,187,187)" paint-order="fill" d="M 532.3816528320312 603.2354125976562 L 533.1898161172867 603.2354125976562 L 533.1898161172867 604.7645387649536 L 532.3816528320312 604.7645387649536 L 532.3816528320312 603.2354125976562 Z" fill-opacity="1" clip-path="url(#qbUrIaPTyLZx)" stroke-opacity="1" stroke-linejoin="bevel" stroke-miterlimit="10"/><path fill="rgb(170,51,119)" stroke="rgb(170,51,119)" paint-order="fill" d="M 456.818359375 75.8499984741211 L 457.8959103822708 75.8499984741211 L 457.8959103822708 82.14999866485596 L 456.818359375 82.14999866485596 L 456.818359375 75.8499984741211 Z" fill-opacity="1" clip-path="url(#qbUrIaPTyLZx)" stroke-opacity="1" stroke-linejoin="bevel" stroke-miterlimit="10"/><path fill="rgb(170,51,119)" stroke="rgb(170,51,119)" paint-order="fill" d="M 456.818359375 183.43548583984375 L 457.8959103822708 183.43548583984375 L 457.8959103822708 184.5645180940628 L 456.818359375 184.5645180940628 L 456.818359375 183.43548583984375 Z" fill-opacity="1" clip-path="url(#qbUrIaPTyLZx)" stroke-opacity="1" stroke-linejoin="bevel" stroke-miterlimit="10"/><path fill="rgb(238,102,119)" stroke="rgb(238,102,119)" paint-order="fill" d="M 230.6114959716797 491.125 L 231.53135657310486 491.125 L 231.53135657310486 506.875 L 230.6114959716797 506.875 L 230.6114959716797 491.125 Z" fill-opacity="1" clip-path="url(#qbUrIaPTyLZx)" stroke-opacity="1" stroke-linejoin="bevel" stroke-miterlimit="10"/><path fill="rgb(34,136,51)" stroke="rgb(34,136,51)" paint-order="fill" d="M 306.2513427734375 391.1875 L 306.74867400527 391.1875 L 306.74867400527 396.8125 L 306.2513427734375 396.8125 L 306.2513427734375 391.1875 Z" fill-opacity="1" clip-path="url(#qbUrIaPTyLZx)" stroke-opacity="1" stroke-linejoin="bevel" stroke-miterlimit="10"/><path fill="rgb(102,204,238)" stroke="rgb(102,204,238)" paint-order="fill" d="M 381.0086975097656 493.75 L 382.84841871261597 493.75 L 382.84841871261597 504.25 L 381.0086975097656 504.25 L 381.0086975097656 493.75 Z" fill-opacity="1" clip-path="url(#qbUrIaPTyLZx)" stroke-opacity="1" stroke-linejoin="bevel" stroke-miterlimit="10"/><path fill="rgb(204,187,68)" stroke="rgb(204,187,68)" paint-order="fill" d="M 79.99691009521484 392.125 L 80.43165689706802 392.125 L 80.43165689706802 395.875 L 79.99691009521484 395.875 L 79.99691009521484 392.125 Z" fill-opacity="1" clip-path="url(#qbUrIaPTyLZx)" stroke-opacity="1" stroke-linejoin="bevel" stroke-miterlimit="10"/><path fill="rgb(204,187,68)" stroke="rgb(204,187,68)" paint-order="fill" d="M 79.99691009521484 183.6236572265625 L 80.43165689706802 183.6236572265625 L 80.43165689706802 184.37634539604187 L 79.99691009521484 184.37634539604187 L 79.99691009521484 183.6236572265625 Z" fill-opacity="1" clip-path="url(#qbUrIaPTyLZx)" stroke-opacity="1" stroke-linejoin="bevel" stroke-miterlimit="10"/><path fill="rgb(68,119,170)" stroke="rgb(68,119,170)" paint-order="fill" d="M 155.4649658203125 603.7451171875 L 155.8207609653473 603.7451171875 L 155.8207609653473 604.2548259496689 L 155.4649658203125 604.2548259496689 L 155.4649658203125 603.7451171875 Z" fill-opacity="1" clip-path="url(#qbUrIaPTyLZx)" stroke-opacity="1" stroke-linejoin="bevel" stroke-miterlimit="10"/><path fill="rgb(170,51,119)" stroke="rgb(170,51,119)" paint-order="fill" d="M 457.17755126953125 496.375 L 457.5367349386215 496.375 L 457.5367349386215 501.625 L 457.17755126953125 501.625 L 457.17755126953125 496.375 Z" fill-opacity="1" clip-path="url(#qbUrIaPTyLZx)" stroke-opacity="1" stroke-linejoin="bevel" stroke-miterlimit="10"/><path fill="rgb(68,119,170)" stroke="rgb(68,119,170)" paint-order="fill" d="M 155.4649658203125 77.94999694824219 L 155.8207609653473 77.94999694824219 L 155.8207609653473 80.04999685287476 L 155.4649658203125 80.04999685287476 L 155.4649658203125 77.94999694824219 Z" fill-opacity="1" clip-path="url(#qbUrIaPTyLZx)" stroke-opacity="1" stroke-linejoin="bevel" stroke-miterlimit="10"/><path fill="rgb(238,102,119)" stroke="rgb(238,102,119)" paint-order="fill" d="M 230.91812133789062 77.94999694824219 L 231.2247415482998 77.94999694824219 L 231.2247415482998 80.04999685287476 L 230.91812133789062 80.04999685287476 L 230.91812133789062 77.94999694824219 Z" fill-opacity="1" clip-path="url(#qbUrIaPTyLZx)" stroke-opacity="1" stroke-linejoin="bevel" stroke-miterlimit="10"/><path fill="none" stroke="rgb(0,0,0)" paint-order="fill" d="M 42.5 656.5 L 570.5 656.5" stroke-opacity="1" stroke-linejoin="bevel" stroke-miterlimit="10"/><path fill="none" stroke="rgb(0,0,0)" paint-order="fill" d="M 80.5 662.5 L 80.5 654.5 M 155.5 662.5 L 155.5 654.5 M 231.5 662.5 L 231.5 654.5 M 306.5 662.5 L 306.5 654.5 M 381.5 662.5 L 381.5 654.5 M 457.5 662.5 L 457.5 654.5 M 532.5 662.5 L 532.5 654.5" stroke-opacity="1" stroke-linejoin="bevel" stroke-miterlimit="10"/><path fill="none" stroke="rgb(0,0,0)" paint-order="fill" d="" stroke-opacity="1" stroke-linejoin="bevel" stroke-miterlimit="10"/><text fill="rgb(68,68,68)" stroke="none" font-family="helvetica" font-size="11px" font-style="normal" font-weight="normal" text-decoration="normal" x="76.6559534072876" y="674.89013671875" text-anchor="start" dominant-baseline="alphabetic" transform="matrix(1, 0, 0, 1, 0.5, 0.5)" fill-opacity="1">1</text><text fill="none" stroke="rgb(0,0,0)" font-family="helvetica" font-size="11px" font-style="normal" font-weight="normal" text-decoration="normal" x="76.6559534072876" y="674.89013671875" text-anchor="start" dominant-baseline="alphabetic" transform="matrix(1, 0, 0, 1, 0.5, 0.5)" stroke-opacity="0" stroke-linejoin="bevel" stroke-miterlimit="10">1</text><text fill="rgb(68,68,68)" stroke="none" font-family="helvetica" font-size="11px" font-style="normal" font-weight="normal" text-decoration="normal" x="152.0845193862915" y="674.89013671875" text-anchor="start" dominant-baseline="alphabetic" transform="matrix(1, 0, 0, 1, 0.5, 0.5)" fill-opacity="1">2</text><text fill="none" stroke="rgb(0,0,0)" font-family="helvetica" font-size="11px" font-style="normal" font-weight="normal" text-decoration="normal" x="152.0845193862915" y="674.89013671875" text-anchor="start" dominant-baseline="alphabetic" transform="matrix(1, 0, 0, 1, 0.5, 0.5)" stroke-opacity="0" stroke-linejoin="bevel" stroke-miterlimit="10">2</text><text fill="rgb(68,68,68)" stroke="none" font-family="helvetica" font-size="11px" font-style="normal" font-weight="normal" text-decoration="normal" x="227.51309299468994" y="674.89013671875" text-anchor="start" dominant-baseline="alphabetic" transform="matrix(1, 0, 0, 1, 0.5, 0.5)" fill-opacity="1">3</text><text fill="none" stroke="rgb(0,0,0)" font-family="helvetica" font-size="11px" font-style="normal" font-weight="normal" text-decoration="normal" x="227.51309299468994" y="674.89013671875" text-anchor="start" dominant-baseline="alphabetic" transform="matrix(1, 0, 0, 1, 0.5, 0.5)" stroke-opacity="0" stroke-linejoin="bevel" stroke-miterlimit="10">3</text><text fill="rgb(68,68,68)" stroke="none" font-family="helvetica" font-size="11px" font-style="normal" font-weight="normal" text-decoration="normal" x="302.9416666030884" y="674.89013671875" text-anchor="start" dominant-baseline="alphabetic" transform="matrix(1, 0, 0, 1, 0.5, 0.5)" fill-opacity="1">4</text><text fill="none" stroke="rgb(0,0,0)" font-family="helvetica" font-size="11px" font-style="normal" font-weight="normal" text-decoration="normal" x="302.9416666030884" y="674.89013671875" text-anchor="start" dominant-baseline="alphabetic" transform="matrix(1, 0, 0, 1, 0.5, 0.5)" stroke-opacity="0" stroke-linejoin="bevel" stroke-miterlimit="10">4</text><text fill="rgb(68,68,68)" stroke="none" font-family="helvetica" font-size="11px" font-style="normal" font-weight="normal" text-decoration="normal" x="378.37022495269775" y="674.89013671875" text-anchor="start" dominant-baseline="alphabetic" transform="matrix(1, 0, 0, 1, 0.5, 0.5)" fill-opacity="1">5</text><text fill="none" stroke="rgb(0,0,0)" font-family="helvetica" font-size="11px" font-style="normal" font-weight="normal" text-decoration="normal" x="378.37022495269775" y="674.89013671875" text-anchor="start" dominant-baseline="alphabetic" transform="matrix(1, 0, 0, 1, 0.5, 0.5)" stroke-opacity="0" stroke-linejoin="bevel" stroke-miterlimit="10">5</text><text fill="rgb(68,68,68)" stroke="none" font-family="helvetica" font-size="11px" font-style="normal" font-weight="normal" text-decoration="normal" x="453.79881381988525" y="674.89013671875" text-anchor="start" dominant-baseline="alphabetic" transform="matrix(1, 0, 0, 1, 0.5, 0.5)" fill-opacity="1">6</text><text fill="none" stroke="rgb(0,0,0)" font-family="helvetica" font-size="11px" font-style="normal" font-weight="normal" text-decoration="normal" x="453.79881381988525" y="674.89013671875" text-anchor="start" dominant-baseline="alphabetic" transform="matrix(1, 0, 0, 1, 0.5, 0.5)" stroke-opacity="0" stroke-linejoin="bevel" stroke-miterlimit="10">6</text><text fill="rgb(68,68,68)" stroke="none" font-family="helvetica" font-size="11px" font-style="normal" font-weight="normal" text-decoration="normal" x="529.2273721694946" y="674.89013671875" text-anchor="start" dominant-baseline="alphabetic" transform="matrix(1, 0, 0, 1, 0.5, 0.5)" fill-opacity="1">7</text><text fill="none" stroke="rgb(0,0,0)" font-family="helvetica" font-size="11px" font-style="normal" font-weight="normal" text-decoration="normal" x="529.2273721694946" y="674.89013671875" text-anchor="start" dominant-baseline="alphabetic" transform="matrix(1, 0, 0, 1, 0.5, 0.5)" stroke-opacity="0" stroke-linejoin="bevel" stroke-miterlimit="10">7</text><text fill="rgb(68,68,68)" stroke="none" font-family="helvetica" font-size="13px" font-style="italic" font-weight="normal" text-decoration="normal" x="246.0083351135254" y="693.89013671875" text-anchor="start" dominant-baseline="alphabetic" transform="matrix(1, 0, 0, 1, 0.5, 0.5)" fill-opacity="1">Module in 0.0_oviHB</text><text fill="none" stroke="rgb(0,0,0)" font-family="helvetica" font-size="13px" font-style="italic" font-weight="normal" text-decoration="normal" x="246.0083351135254" y="693.89013671875" text-anchor="start" dominant-baseline="alphabetic" transform="matrix(1, 0, 0, 1, 0.5, 0.5)" stroke-opacity="0" stroke-linejoin="bevel" stroke-miterlimit="10">Module in 0.0_oviHB</text><path fill="none" stroke="rgb(0,0,0)" paint-order="fill" d="M 42.5 656.5 L 42.5 26.5" stroke-opacity="1" stroke-linejoin="bevel" stroke-miterlimit="10"/><path fill="none" stroke="rgb(0,0,0)" paint-order="fill" d="M 36.5 604.5 L 44.5 604.5 M 36.5 499.5 L 44.5 499.5 M 36.5 394.5 L 44.5 394.5 M 36.5 289.5 L 44.5 289.5 M 36.5 184.5 L 44.5 184.5 M 36.5 79.5 L 44.5 79.5" stroke-opacity="1" stroke-linejoin="bevel" stroke-miterlimit="10"/><path fill="none" stroke="rgb(0,0,0)" paint-order="fill" d="" stroke-opacity="1" stroke-linejoin="bevel" stroke-miterlimit="10"/><text fill="rgb(68,68,68)" stroke="none" font-family="helvetica" font-size="11px" font-style="normal" font-weight="normal" text-decoration="normal" x="24.883333206176758" y="607.445068359375" text-anchor="start" dominant-baseline="alphabetic" transform="matrix(1, 0, 0, 1, 0.5, 0.5)" fill-opacity="1">2</text><text fill="none" stroke="rgb(0,0,0)" font-family="helvetica" font-size="11px" font-style="normal" font-weight="normal" text-decoration="normal" x="24.883333206176758" y="607.445068359375" text-anchor="start" dominant-baseline="alphabetic" transform="matrix(1, 0, 0, 1, 0.5, 0.5)" stroke-opacity="0" stroke-linejoin="bevel" stroke-miterlimit="10">2</text><text fill="rgb(68,68,68)" stroke="none" font-family="helvetica" font-size="11px" font-style="normal" font-weight="normal" text-decoration="normal" x="24.883333206176758" y="502.445068359375" text-anchor="start" dominant-baseline="alphabetic" transform="matrix(1, 0, 0, 1, 0.5, 0.5)" fill-opacity="1">5</text><text fill="none" stroke="rgb(0,0,0)" font-family="helvetica" font-size="11px" font-style="normal" font-weight="normal" text-decoration="normal" x="24.883333206176758" y="502.445068359375" text-anchor="start" dominant-baseline="alphabetic" transform="matrix(1, 0, 0, 1, 0.5, 0.5)" stroke-opacity="0" stroke-linejoin="bevel" stroke-miterlimit="10">5</text><text fill="rgb(68,68,68)" stroke="none" font-family="helvetica" font-size="11px" font-style="normal" font-weight="normal" text-decoration="normal" x="24.883333206176758" y="397.445068359375" text-anchor="start" dominant-baseline="alphabetic" transform="matrix(1, 0, 0, 1, 0.5, 0.5)" fill-opacity="1">4</text><text fill="none" stroke="rgb(0,0,0)" font-family="helvetica" font-size="11px" font-style="normal" font-weight="normal" text-decoration="normal" x="24.883333206176758" y="397.445068359375" text-anchor="start" dominant-baseline="alphabetic" transform="matrix(1, 0, 0, 1, 0.5, 0.5)" stroke-opacity="0" stroke-linejoin="bevel" stroke-miterlimit="10">4</text><text fill="rgb(68,68,68)" stroke="none" font-family="helvetica" font-size="11px" font-style="normal" font-weight="normal" text-decoration="normal" x="24.883333206176758" y="292.445068359375" text-anchor="start" dominant-baseline="alphabetic" transform="matrix(1, 0, 0, 1, 0.5, 0.5)" fill-opacity="1">3</text><text fill="none" stroke="rgb(0,0,0)" font-family="helvetica" font-size="11px" font-style="normal" font-weight="normal" text-decoration="normal" x="24.883333206176758" y="292.445068359375" text-anchor="start" dominant-baseline="alphabetic" transform="matrix(1, 0, 0, 1, 0.5, 0.5)" stroke-opacity="0" stroke-linejoin="bevel" stroke-miterlimit="10">3</text><text fill="rgb(68,68,68)" stroke="none" font-family="helvetica" font-size="11px" font-style="normal" font-weight="normal" text-decoration="normal" x="24.883333206176758" y="187.445068359375" text-anchor="start" dominant-baseline="alphabetic" transform="matrix(1, 0, 0, 1, 0.5, 0.5)" fill-opacity="1">1</text><text fill="none" stroke="rgb(0,0,0)" font-family="helvetica" font-size="11px" font-style="normal" font-weight="normal" text-decoration="normal" x="24.883333206176758" y="187.445068359375" text-anchor="start" dominant-baseline="alphabetic" transform="matrix(1, 0, 0, 1, 0.5, 0.5)" stroke-opacity="0" stroke-linejoin="bevel" stroke-miterlimit="10">1</text><text fill="rgb(68,68,68)" stroke="none" font-family="helvetica" font-size="11px" font-style="normal" font-weight="normal" text-decoration="normal" x="24.883333206176758" y="82.445068359375" text-anchor="start" dominant-baseline="alphabetic" transform="matrix(1, 0, 0, 1, 0.5, 0.5)" fill-opacity="1">6</text><text fill="none" stroke="rgb(0,0,0)" font-family="helvetica" font-size="11px" font-style="normal" font-weight="normal" text-decoration="normal" x="24.883333206176758" y="82.445068359375" text-anchor="start" dominant-baseline="alphabetic" transform="matrix(1, 0, 0, 1, 0.5, 0.5)" stroke-opacity="0" stroke-linejoin="bevel" stroke-miterlimit="10">6</text><text fill="rgb(68,68,68)" stroke="none" font-family="helvetica" font-size="13px" font-style="italic" font-weight="normal" text-decoration="normal" x="-51.7833309173584" y="338" text-anchor="start" dominant-baseline="alphabetic" transform="matrix(6.123233995736766e-17, -1, 1, 6.123233995736766e-17, -323.61666679382324, 358.38333320617676)" fill-opacity="1">Module in 0.0_wholeHB</text><text fill="none" stroke="rgb(0,0,0)" font-family="helvetica" font-size="13px" font-style="italic" font-weight="normal" text-decoration="normal" x="-51.7833309173584" y="338" text-anchor="start" dominant-baseline="alphabetic" transform="matrix(6.123233995736766e-17, -1, 1, 6.123233995736766e-17, -323.61666679382324, 358.38333320617676)" stroke-opacity="0" stroke-linejoin="bevel" stroke-miterlimit="10">Module in 0.0_wholeHB</text><text fill="rgb(68,68,68)" stroke="none" font-family="helvetica" font-size="13px" font-style="normal" font-weight="bold" text-decoration="normal" x="0" y="11" text-anchor="start" dominant-baseline="alphabetic" transform="matrix(1, 0, 0, 1, 42.5, 7.5)" fill-opacity="1">Module at chi2 = 0.0_wholeHB vs. module at chi1 = 0.0_oviHB</text><text fill="none" stroke="rgb(0,0,0)" font-family="helvetica" font-size="13px" font-style="normal" font-weight="bold" text-decoration="normal" x="0" y="11" text-anchor="start" dominant-baseline="alphabetic" transform="matrix(1, 0, 0, 1, 42.5, 7.5)" stroke-opacity="0" stroke-miterlimit="10" stroke-dasharray="">Module at chi2 = 0.0_wholeHB vs. module at chi1 = 0.0_oviHB</text></svg>